<svg xmlns="http://www.w3.org/2000/svg" viewBox="0 0 64 64">
    <rect width="64" height="64" rx="16" fill="#087773"/>
    <path fill="#ffffff" d="M31 14h2c1.7 0 3 1.3 3 3v11h11c1.7 0 3 1.3 3 3v2c0 1.7-1.3 3-3 3H36v11c0 1.7-1.3 3-3 3h-2c-1.7 0-3-1.3-3-3V36H17c-1.7 0-3-1.3-3-3v-2c0-1.7 1.3-3 3-3h11V17c0-1.7 1.3-3 3-3Z"/>
    <path fill="#83ded8" d="M42.6 43.9c-2.8 2.3-6.5 3.7-10.6 3.7-8.8 0-15.6-6.8-15.6-15.6S23.2 16.4 32 16.4c4.1 0 7.8 1.4 10.6 3.7l-4.1 4.9c-1.7-1.4-3.9-2.2-6.5-2.2-5.1 0-8.9 4-8.9 9.2s3.8 9.2 8.9 9.2c2.6 0 4.8-.8 6.5-2.2l4.1 4.9Z"/>
</svg>
